<svg xmlns="http://www.w3.org/2000/svg" viewBox="0 0 188 188"><defs><style>.cls-1{fill:#febb1e;}.cls-2{fill:#ffc742;}.cls-3{fill:#ffce55;opacity:0.12;}.cls-4,.cls-7{fill:#e2a730;}.cls-4{opacity:0.2;}.cls-5{fill:#d1952c;}.cls-6{fill:var(--white);}.cls-8{fill:#ffca5f;}.cls-9{fill:#efa91b;}</style></defs><title>Asset 70</title><g id="Layer_2" data-name="Layer 2"><g id="Layer_1-2" data-name="Layer 1"><circle class="cls-1" cx="95" cy="95" r="91"/><path class="cls-2" d="M184,94A91,91,0,1,1,5.08,70.44,94.09,94.09,0,0,0,70.29,96.78a56.51,56.51,0,0,0,19.29-3.09C104,88.33,114.3,75.2,121.15,61.38c4-8.16,7.24-16.82,12.6-24.19A48.77,48.77,0,0,1,150,23.09,90.81,90.81,0,0,1,184,94Z"/><path class="cls-3" d="M14,96A91,91,0,0,1,100,5.14Q97.52,5,95,5a91,91,0,1,0,0,182q2.52,0,5-.14A91,91,0,0,1,14,96Z"/><path class="cls-4" d="M174,94.08a91,91,0,0,1-86.19,90.68q2.48.14,5,.15a91,91,0,0,0,.38-182q-2.52,0-5,.13A91,91,0,0,1,174,94.08Z"/><path class="cls-5" d="M94,188a94,94,0,1,1,94-94A94.11,94.11,0,0,1,94,188ZM94,6a88,88,0,1,0,88,88A88.1,88.1,0,0,0,94,6Z"/><path class="cls-5" d="M93,171.49A77.5,77.5,0,1,1,170.51,94,77.59,77.59,0,0,1,93,171.49Zm0-153A75.5,75.5,0,1,0,168.51,94,75.59,75.59,0,0,0,93,18.49Z"/><path class="cls-5" d="M50.32,96.61a1.65,1.65,0,1,1-1.65,1.65,1.65,1.65,0,0,1,1.65-1.65m0-.92a2.57,2.57,0,1,0,2.57,2.57,2.56,2.56,0,0,0-2.57-2.57Z"/><path class="cls-5" d="M50,78.94a1.65,1.65,0,1,1-1.65,1.65A1.65,1.65,0,0,1,50,78.94M50,78a2.57,2.57,0,1,0,2.57,2.57A2.56,2.56,0,0,0,50,78Z"/><path class="cls-5" d="M31.58,89.59a1.65,1.65,0,1,1-1.65,1.65,1.65,1.65,0,0,1,1.65-1.65m0-.92a2.57,2.57,0,1,0,2.57,2.57,2.56,2.56,0,0,0-2.57-2.57Z"/><path class="cls-5" d="M38.19,104.25a1.65,1.65,0,1,1-1.65,1.65,1.65,1.65,0,0,1,1.65-1.65m0-.92a2.57,2.57,0,1,0,2.57,2.57,2.56,2.56,0,0,0-2.57-2.57Z"/><path class="cls-5" d="M55.76,80.66H51.82v-.92h3.78l3.86-2.5a.53.53,0,0,1,.26-.07H72.88v.92h-13L56,80.59A.39.39,0,0,1,55.76,80.66Z"/><path class="cls-5" d="M41,91.69H33.16v-.92h7.68l3.93-3.2a.42.42,0,0,1,.29-.11H72.91v.92H45.21l-3.93,3.2A.42.42,0,0,1,41,91.69Z"/><path class="cls-5" d="M72.91,109H52.52a.52.52,0,0,1-.22-.07l-4.56-2.54H39.88v-.92h8a.52.52,0,0,1,.22.07L52.63,108H72.91Z"/><rect class="cls-5" x="52.49" y="97.75" width="20.5" height="0.92"/><path class="cls-5" d="M138.28,96.62a1.66,1.66,0,1,1-1.66,1.66,1.65,1.65,0,0,1,1.66-1.66m0-.92a2.58,2.58,0,1,0,2.58,2.58,2.58,2.58,0,0,0-2.58-2.58Z"/><path class="cls-5" d="M138.64,78.92A1.66,1.66,0,1,1,137,80.58a1.65,1.65,0,0,1,1.66-1.66m0-.92a2.58,2.58,0,1,0,2.58,2.58A2.58,2.58,0,0,0,138.64,78Z"/><path class="cls-5" d="M157,89.59a1.66,1.66,0,1,1-1.66,1.66A1.65,1.65,0,0,1,157,89.59m0-.92a2.58,2.58,0,1,0,2.58,2.58A2.58,2.58,0,0,0,157,88.67Z"/><path class="cls-5" d="M150.42,104.27a1.66,1.66,0,1,1-1.66,1.66,1.65,1.65,0,0,1,1.66-1.66m0-.92a2.58,2.58,0,1,0,2.58,2.58,2.58,2.58,0,0,0-2.58-2.58Z"/><path class="cls-5" d="M132.61,80.58l-3.86-2.5H115.69v-.92h13.17a.53.53,0,0,1,.26.07l3.86,2.5h3.79v.92h-3.94A.39.39,0,0,1,132.61,80.58Z"/><path class="cls-5" d="M147.33,91.58l-3.94-3.2H115.65v-.92h27.89a.42.42,0,0,1,.29.11l3.94,3.2h7.69v.92h-7.84A.42.42,0,0,1,147.33,91.58Z"/><path class="cls-5" d="M115.65,108.06H136l4.56-2.54a.52.52,0,0,1,.22-.07h8v.92h-7.87l-4.56,2.54a.52.52,0,0,1-.22.07H115.65Z"/><rect class="cls-5" x="115.58" y="97.76" width="20.53" height="0.92"/><path id="BTC_alt" data-name="BTC alt" class="cls-5" d="M130.39,94.63a27.15,27.15,0,0,0-9.27-4s4.61-2.67,6.49-5.34a20.3,20.3,0,0,0,3-9c.16-2.15.52-11.15-6.49-16.34-5.43-4-11.65-5.6-20-6.12V35.68H92.9v18H84.36v-18H73.16v18h-22V65.27h6.48c1.77,0,4.91.2,6.24,1.69s1.57,2.28,1.57,5.18,0,45.27,0,46.37a4.54,4.54,0,0,1-1.15,3.35c-.94.89-1.88,1.1-4.14,1.1h-6.7l-2.3,13.46h22v17.91h11.2V136.42H92.9v17.91H104.1v-18.2c2.9-.17,5.6-.39,7.17-.59,3.19-.42,10.42-1.26,17.18-6s8.27-12.1,8.43-19.53S134.21,97.51,130.39,94.63Zm-46-28.33S87.92,66,91.43,66a35.65,35.65,0,0,1,11.21,1.57c4.61,1.41,7.33,4.87,7.43,9a8.78,8.78,0,0,1-4.82,8.53,27.3,27.3,0,0,1-11.57,2.83c-4.08.16-9.32,0-9.32,0Zm25.08,53.56c-2.57,1.41-7.7,2.67-12.67,3s-12.41.21-12.41.21v-24s7.12-.37,12.67,0a35.88,35.88,0,0,1,12.3,2.83,9.42,9.42,0,0,1,5.76,8.85C115.1,116.26,112,118.46,109.44,119.87Z"/><circle class="cls-6" cx="13.44" cy="103.41" r="1.42" transform="translate(-0.99 0.13) rotate(-0.55)"/><circle class="cls-6" cx="13.48" cy="107.68" r="1.42" transform="translate(-1.03 0.13) rotate(-0.55)"/><circle class="cls-6" cx="13.52" cy="111.95" r="1.42" transform="translate(-1.07 0.13) rotate(-0.55)"/><circle class="cls-6" cx="9.44" cy="98.41" r="1.42" transform="translate(-0.94 0.09) rotate(-0.55)"/><circle class="cls-6" cx="9.48" cy="102.68" r="1.42" transform="translate(-0.98 0.1) rotate(-0.55)"/><circle class="cls-6" cx="9.52" cy="106.95" r="1.42" transform="translate(-1.02 0.1) rotate(-0.55)"/><circle class="cls-6" cx="28.44" cy="112.41" r="1.42" transform="translate(-1.07 0.28) rotate(-0.55)"/><circle class="cls-6" cx="28.48" cy="116.68" r="1.42" transform="translate(-1.12 0.28) rotate(-0.55)"/><circle class="cls-6" cx="28.52" cy="120.95" r="1.42" transform="translate(-1.16 0.28) rotate(-0.55)"/><circle class="cls-7" cx="161.44" cy="110.41" r="1.42" transform="translate(-1.05 1.55) rotate(-0.55)"/><circle class="cls-7" cx="161.48" cy="114.68" r="1.42" transform="translate(-1.09 1.55) rotate(-0.55)"/><circle class="cls-7" cx="161.52" cy="118.95" r="1.42" transform="translate(-1.13 1.55) rotate(-0.55)"/><circle class="cls-6" cx="38.44" cy="129.41" r="1.42" transform="translate(-1.24 0.37) rotate(-0.55)"/><circle class="cls-6" cx="38.48" cy="133.68" r="1.42" transform="translate(-1.28 0.37) rotate(-0.55)"/><circle class="cls-6" cx="38.52" cy="137.95" r="1.42" transform="translate(-1.32 0.38) rotate(-0.55)"/><circle class="cls-6" cx="34.44" cy="124.41" r="1.42" transform="translate(-1.19 0.34) rotate(-0.55)"/><circle class="cls-6" cx="34.48" cy="128.68" r="1.42" transform="translate(-1.23 0.34) rotate(-0.55)"/><circle class="cls-6" cx="34.52" cy="132.95" r="1.42" transform="translate(-1.27 0.34) rotate(-0.55)"/><circle class="cls-7" cx="177.44" cy="90.41" r="1.42" transform="translate(-0.86 1.7) rotate(-0.55)"/><circle class="cls-7" cx="177.48" cy="94.68" r="1.42" transform="translate(-0.9 1.7) rotate(-0.55)"/><circle class="cls-7" cx="177.52" cy="98.95" r="1.42" transform="translate(-0.94 1.7) rotate(-0.55)"/><circle class="cls-7" cx="173.44" cy="85.41" r="1.42" transform="translate(-0.81 1.66) rotate(-0.55)"/><circle class="cls-7" cx="173.48" cy="89.68" r="1.42" transform="translate(-0.85 1.66) rotate(-0.55)"/><circle class="cls-7" cx="173.52" cy="93.95" r="1.42" transform="translate(-0.89 1.67) rotate(-0.55)"/><circle class="cls-7" cx="148.44" cy="52.41" r="1.42" transform="translate(-0.49 1.42) rotate(-0.55)"/><circle class="cls-7" cx="148.48" cy="56.68" r="1.42" transform="translate(-0.54 1.42) rotate(-0.55)"/><circle class="cls-7" cx="148.52" cy="60.95" r="1.42" transform="translate(-0.58 1.42) rotate(-0.55)"/><circle class="cls-7" cx="144.44" cy="47.41" r="1.42" transform="translate(-0.45 1.38) rotate(-0.55)"/><circle class="cls-7" cx="144.48" cy="51.68" r="1.42" transform="translate(-0.49 1.39) rotate(-0.55)"/><circle class="cls-7" cx="144.52" cy="55.95" r="1.42" transform="translate(-0.53 1.39) rotate(-0.55)"/><circle class="cls-8" cx="41.12" cy="54.02" r="1.42" transform="matrix(0.62, -0.79, 0.79, 0.62, -26.76, 53.05)"/><circle class="cls-8" cx="38.48" cy="57.38" r="1.42" transform="translate(-30.42 52.26) rotate(-51.9)"/><circle class="cls-8" cx="35.85" cy="60.74" r="1.42" transform="translate(-34.07 51.47) rotate(-51.9)"/><circle class="cls-8" cx="41.12" cy="47.61" r="1.42" transform="translate(-21.72 50.59) rotate(-51.9)"/><circle class="cls-8" cx="38.48" cy="50.98" r="1.42" transform="translate(-25.38 49.81) rotate(-51.9)"/><circle class="cls-8" cx="35.85" cy="54.34" r="1.42" transform="translate(-29.03 49.02) rotate(-51.9)"/><circle class="cls-9" cx="140.76" cy="164.52" r="1.42" transform="translate(-43.68 51.11) rotate(-17.86)"/><circle class="cls-9" cx="136.69" cy="165.83" r="1.42" transform="translate(-44.28 49.92) rotate(-17.86)"/><circle class="cls-9" cx="132.63" cy="167.14" r="1.42" transform="translate(-44.88 48.74) rotate(-17.86)"/><circle class="cls-9" cx="144.34" cy="159.21" r="1.42" transform="translate(-41.88 51.95) rotate(-17.86)"/><circle class="cls-9" cx="140.27" cy="160.52" r="1.42" transform="translate(-42.48 50.77) rotate(-17.86)"/><circle class="cls-9" cx="136.21" cy="161.83" r="1.42" transform="translate(-43.07 49.58) rotate(-17.86)"/></g></g></svg>