<svg xmlns="http://www.w3.org/2000/svg" viewBox="0 0 188 188"><defs><style>.cls-1{fill:#4f84a6;}.cls-2{fill:#68a8c1;}.cls-3{fill:#94d0e8;}.cls-3,.cls-4{opacity:0.5;}.cls-4{fill:#3f5a7c;}.cls-5{fill:#2e576d;}.cls-6{fill:#fff;}.cls-7{fill:#5183a6;}</style></defs><title>Asset 60</title><g id="Layer_2" data-name="Layer 2"><g id="Layer_1-2" data-name="Layer 1"><circle class="cls-1" cx="95" cy="95" r="91"/><path class="cls-2" d="M184,94A91,91,0,1,1,5.08,70.44,94.09,94.09,0,0,0,70.29,96.78a56.51,56.51,0,0,0,19.29-3.09c14.47-5.36,24.72-18.49,31.57-32.31,4-8.16,7.24-16.82,12.6-24.19A48.77,48.77,0,0,1,150,23.09,90.81,90.81,0,0,1,184,94Z"/><path class="cls-3" d="M14,96A91,91,0,0,1,100,5.14Q97.52,5,95,5a91,91,0,0,0,0,182q2.52,0,5-.14A91,91,0,0,1,14,96Z"/><path class="cls-4" d="M174,94a91,91,0,0,1-86,90.86q2.48.13,5,.14A91,91,0,1,0,93,3q-2.52,0-5,.14A91,91,0,0,1,174,94Z"/><path class="cls-5" d="M94,188a94,94,0,1,1,94-94A94.11,94.11,0,0,1,94,188ZM94,6a88,88,0,1,0,88,88A88.1,88.1,0,0,0,94,6Z"/><path class="cls-5" d="M63.45,57.09a1.65,1.65,0,1,1-2.34,0,1.65,1.65,0,0,1,2.34,0m.65-.65a2.57,2.57,0,1,0,0,3.64,2.56,2.56,0,0,0,0-3.64Z"/><path class="cls-5" d="M75.68,44.33a1.65,1.65,0,1,1-2.34,0,1.65,1.65,0,0,1,2.34,0m.65-.65a2.57,2.57,0,1,0,0,3.64,2.56,2.56,0,0,0,0-3.64Z"/><path class="cls-5" d="M55.16,38.88a1.65,1.65,0,1,1-2.34,0,1.65,1.65,0,0,1,2.34,0m.65-.65a2.57,2.57,0,1,0,0,3.64,2.56,2.56,0,0,0,0-3.64Z"/><path class="cls-5" d="M49.47,53.92a1.65,1.65,0,1,1-2.34,0,1.65,1.65,0,0,1,2.34,0m.65-.65a2.57,2.57,0,1,0,0,3.64,2.56,2.56,0,0,0,0-3.64Z"/><path class="cls-5" d="M78.57,49.66l-2.78-2.78.65-.65,2.68,2.68,4.49,1a.53.53,0,0,1,.23.13l9.3,9.3-.65.65-9.22-9.22-4.49-1A.39.39,0,0,1,78.57,49.66Z"/><path class="cls-5" d="M60.33,47l-5.53-5.53.65-.65,5.43,5.43,5,.52a.42.42,0,0,1,.29.13L85.89,66.6l-.65.65L65.65,47.66l-5-.52A.42.42,0,0,1,60.33,47Z"/><path class="cls-5" d="M70.69,81.8,56.28,67.38a.52.52,0,0,1-.1-.21l-1.43-5L49.18,56.6l.65-.65,5.64,5.64a.52.52,0,0,1,.1.21l1.43,5L71.34,81.15Z"/><rect class="cls-5" x="70.64" y="56.75" width="0.92" height="20.5" transform="translate(-26.55 69.9) rotate(-45)"/><path class="cls-5" d="M123.81,133.47a1.66,1.66,0,1,1-2.27.58,1.65,1.65,0,0,1,2.27-.58m.47-.79a2.58,2.58,0,1,0,.91,3.53,2.58,2.58,0,0,0-.91-3.53Z"/><path class="cls-5" d="M133.13,118.42a1.66,1.66,0,1,1-2.27.58,1.65,1.65,0,0,1,2.27-.58m.47-.79a2.58,2.58,0,1,0,.91,3.53,2.58,2.58,0,0,0-.91-3.53Z"/><path class="cls-5" d="M143.54,137a1.66,1.66,0,1,1-2.27.58,1.65,1.65,0,0,1,2.27-.58m.47-.79a2.58,2.58,0,1,0,.91,3.53,2.58,2.58,0,0,0-.91-3.53Z"/><path class="cls-5" d="M130.37,146.23a1.66,1.66,0,1,1-2.27.58,1.65,1.65,0,0,1,2.27-.58m.47-.79a2.58,2.58,0,1,0,.91,3.53,2.58,2.58,0,0,0-.91-3.53Z"/><path class="cls-5" d="M127.09,116.78,125,112.66,113.79,106l.47-.79,11.34,6.7a.53.53,0,0,1,.18.19l2.05,4.12,3.26,1.93-.47.79-3.39-2A.39.39,0,0,1,127.09,116.78Z"/><path class="cls-5" d="M134.17,133.73,132.41,129l-23.88-14.11.47-.79,24,14.18a.42.42,0,0,1,.2.24l1.76,4.76,6.62,3.91-.47.79-6.75-4A.42.42,0,0,1,134.17,133.73Z"/><path class="cls-5" d="M98.51,131.81,116,142.14l5.22.13a.52.52,0,0,1,.23,0l6.87,4.06-.47.79-6.78-4-5.22-.13a.52.52,0,0,1-.23,0L98,132.6Z"/><rect class="cls-5" x="111.83" y="118.26" width="0.92" height="20.53" transform="translate(-55.48 159.85) rotate(-59.43)"/><polygon class="cls-5" points="94.54 109.93 94.54 80.03 65.34 92.82 94.54 109.93"/><polygon class="cls-5" points="94.54 77.97 94.54 42.87 66.28 90.35 94.54 77.97"/><polygon class="cls-5" points="96.43 42.86 96.43 77.97 125.08 90.53 96.43 42.86"/><polygon class="cls-5" points="96.43 80.03 96.43 109.93 125.65 92.83 96.43 80.03"/><polygon class="cls-5" points="94.54 139.99 94.54 115.94 65.54 98.96 94.54 139.99"/><polygon class="cls-5" points="96.43 139.99 125.43 98.96 96.43 115.94 96.43 139.99"/><path class="cls-5" d="M93.44,170.49A77.5,77.5,0,1,1,170.94,93,77.59,77.59,0,0,1,93.44,170.49Zm0-153A75.5,75.5,0,1,0,168.94,93,75.59,75.59,0,0,0,93.44,17.49Z"/><circle class="cls-6" cx="38.44" cy="127.4" r="1.42" transform="translate(-1.22 0.37) rotate(-0.55)"/><circle class="cls-6" cx="38.48" cy="131.68" r="1.42" transform="translate(-1.26 0.37) rotate(-0.55)"/><circle class="cls-6" cx="38.52" cy="135.95" r="1.42" transform="translate(-1.3 0.37) rotate(-0.55)"/><circle class="cls-6" cx="34.44" cy="122.4" r="1.42" transform="translate(-1.17 0.34) rotate(-0.55)"/><circle class="cls-6" cx="34.48" cy="126.68" r="1.42" transform="translate(-1.21 0.34) rotate(-0.55)"/><circle class="cls-6" cx="34.52" cy="130.95" r="1.42" transform="translate(-1.25 0.34) rotate(-0.55)"/><circle class="cls-7" cx="162.44" cy="97.4" r="1.42" transform="translate(-0.92 1.56) rotate(-0.55)"/><circle class="cls-7" cx="162.48" cy="101.68" r="1.42" transform="translate(-0.97 1.56) rotate(-0.55)"/><circle class="cls-7" cx="162.52" cy="105.95" r="1.42" transform="translate(-1.01 1.56) rotate(-0.55)"/><circle class="cls-7" cx="158.44" cy="92.4" r="1.42" transform="translate(-0.88 1.52) rotate(-0.55)"/><circle class="cls-7" cx="158.48" cy="96.68" r="1.42" transform="translate(-0.92 1.52) rotate(-0.55)"/><circle class="cls-7" cx="158.52" cy="100.95" r="1.42" transform="translate(-0.96 1.52) rotate(-0.55)"/><circle class="cls-7" cx="159.44" cy="115.4" r="1.42" transform="translate(-1.1 1.53) rotate(-0.55)"/><circle class="cls-7" cx="159.48" cy="119.68" r="1.42" transform="translate(-1.14 1.53) rotate(-0.55)"/><circle class="cls-7" cx="159.52" cy="123.95" r="1.42" transform="translate(-1.18 1.53) rotate(-0.55)"/><circle class="cls-7" cx="155.44" cy="110.4" r="1.42" transform="translate(-1.05 1.49) rotate(-0.55)"/><circle class="cls-7" cx="155.48" cy="114.68" r="1.42" transform="translate(-1.09 1.49) rotate(-0.55)"/><circle class="cls-7" cx="155.52" cy="118.95" r="1.42" transform="translate(-1.13 1.49) rotate(-0.55)"/><circle class="cls-6" cx="38" cy="55.37" r="1.42" transform="translate(-28 67.78) rotate(-66.19)"/><circle class="cls-6" cx="36.27" cy="59.28" r="1.42" transform="translate(-32.6 68.53) rotate(-66.19)"/><circle class="cls-6" cx="34.55" cy="63.19" r="1.42" transform="translate(-37.21 69.28) rotate(-66.19)"/><circle class="cls-6" cx="36.42" cy="49.17" r="1.42" transform="translate(-23.27 62.63) rotate(-66.19)"/><circle class="cls-6" cx="34.69" cy="53.07" r="1.42" transform="translate(-27.87 63.38) rotate(-66.19)"/><circle class="cls-6" cx="32.97" cy="56.98" r="1.42" transform="translate(-32.47 64.14) rotate(-66.19)"/><circle class="cls-7" cx="116.76" cy="174.52" r="1.42" transform="translate(-47.9 44.23) rotate(-17.86)"/><circle class="cls-7" cx="112.69" cy="175.83" r="1.42" transform="translate(-48.5 43.04) rotate(-17.86)"/><circle class="cls-7" cx="108.63" cy="177.14" r="1.42" transform="translate(-49.1 41.86) rotate(-17.86)"/><circle class="cls-7" cx="120.34" cy="169.21" r="1.42" transform="translate(-46.1 45.07) rotate(-17.86)"/><circle class="cls-7" cx="116.28" cy="170.52" r="1.42" transform="translate(-46.7 43.89) rotate(-17.86)"/><circle class="cls-7" cx="112.21" cy="171.83" r="1.42" transform="translate(-47.3 42.7) rotate(-17.86)"/><circle class="cls-6" cx="28.88" cy="111.4" r="1.42" transform="translate(-1.06 0.28) rotate(-0.55)"/><circle class="cls-6" cx="28.92" cy="115.68" r="1.42" transform="translate(-1.11 0.28) rotate(-0.55)"/><circle class="cls-6" cx="28.96" cy="119.95" r="1.42" transform="translate(-1.15 0.28) rotate(-0.55)"/><circle class="cls-2" cx="177.44" cy="84.4" r="1.42" transform="translate(-0.8 1.7) rotate(-0.55)"/><circle class="cls-2" cx="177.48" cy="88.68" r="1.42" transform="translate(-0.84 1.7) rotate(-0.55)"/><circle class="cls-2" cx="177.52" cy="92.95" r="1.42" transform="translate(-0.88 1.7) rotate(-0.55)"/></g></g></svg>