<svg xmlns="http://www.w3.org/2000/svg" viewBox="0 0 188 188"><defs><style>.cls-1{fill:#e8f0f9;}.cls-2{fill:#bcd9ea;}.cls-3,.cls-6{fill:var(--white);}.cls-3{opacity:0.25;}.cls-4{fill:#9abbcc;opacity:0.2;}.cls-5{fill:#2e576d;}.cls-7{opacity:0.5;}.cls-8{fill:#3f5a7c;}</style></defs><title>Asset 80</title><g id="Layer_2" data-name="Layer 2"><g id="Layer_1-2" data-name="Layer 1"><circle class="cls-1" cx="95.43" cy="93.41" r="91"/><path class="cls-2" d="M184.43,92.41A91,91,0,1,1,5.51,68.85,94.09,94.09,0,0,0,70.72,95.19,56.51,56.51,0,0,0,90,92.1c14.47-5.36,24.72-18.49,31.57-32.31,4-8.16,7.24-16.82,12.6-24.19a48.77,48.77,0,0,1,16.28-14.1A90.81,90.81,0,0,1,184.43,92.41Z"/><path class="cls-3" d="M14.43,94.41a91,91,0,0,1,86-90.86q-2.48-.13-5-.14a91,91,0,0,0,0,182q2.52,0,5-.14A91,91,0,0,1,14.43,94.41Z"/><path class="cls-4" d="M174.43,92.41a91,91,0,0,1-86,90.86q2.48.13,5,.14a91,91,0,0,0,0-182q-2.52,0-5,.14A91,91,0,0,1,174.43,92.41Z"/><path class="cls-5" d="M94,188a94,94,0,1,1,94-94A94.11,94.11,0,0,1,94,188ZM94,6a88,88,0,1,0,88,88A88.1,88.1,0,0,0,94,6Z"/><polygon class="cls-5" points="140.38 129.18 135.87 144.23 51.87 144.23 61.2 109.83 48.48 115.11 51.44 103.93 64.15 99.31 79.26 42.6 108.37 42.6 96.44 87.55 112.67 81.6 109.81 93.1 93.41 99.31 85.62 129.18 140.38 129.18"/><path class="cls-5" d="M57.31,81.62a1.65,1.65,0,1,1-1.65,1.65,1.65,1.65,0,0,1,1.65-1.65m0-.92a2.57,2.57,0,1,0,2.57,2.57,2.56,2.56,0,0,0-2.57-2.57Z"/><path class="cls-5" d="M56.94,64a1.65,1.65,0,1,1-1.65,1.65A1.65,1.65,0,0,1,56.94,64m0-.92a2.57,2.57,0,1,0,2.57,2.57A2.56,2.56,0,0,0,56.94,63Z"/><path class="cls-5" d="M38.57,74.61a1.65,1.65,0,1,1-1.65,1.65,1.65,1.65,0,0,1,1.65-1.65m0-.92a2.57,2.57,0,1,0,2.57,2.57,2.56,2.56,0,0,0-2.57-2.57Z"/><path class="cls-5" d="M45.19,89.27a1.65,1.65,0,1,1-1.65,1.65,1.65,1.65,0,0,1,1.65-1.65m0-.92a2.57,2.57,0,1,0,2.57,2.57,2.56,2.56,0,0,0-2.57-2.57Z"/><path class="cls-5" d="M62.75,65.68H58.82v-.92H62.6l3.86-2.5a.53.53,0,0,1,.26-.07H79.87v.92h-13L63,65.6A.39.39,0,0,1,62.75,65.68Z"/><path class="cls-5" d="M48,76.7H40.15v-.92h7.68l3.93-3.2a.42.42,0,0,1,.29-.11H79.91v.92H52.2l-3.93,3.2A.42.42,0,0,1,48,76.7Z"/><path class="cls-5" d="M79.91,94H59.52a.52.52,0,0,1-.22-.07l-4.56-2.54H46.88v-.92h8a.52.52,0,0,1,.22.07l4.56,2.54H79.91Z"/><rect class="cls-5" x="59.48" y="82.76" width="20.5" height="0.92"/><path class="cls-5" d="M121.27,66.63a1.66,1.66,0,1,1-1.66,1.66,1.65,1.65,0,0,1,1.66-1.66m0-.92a2.58,2.58,0,1,0,2.58,2.58,2.58,2.58,0,0,0-2.58-2.58Z"/><path class="cls-5" d="M121.64,48.93A1.66,1.66,0,1,1,120,50.59a1.65,1.65,0,0,1,1.66-1.66m0-.92a2.58,2.58,0,1,0,2.58,2.58A2.58,2.58,0,0,0,121.64,48Z"/><path class="cls-5" d="M140,59.6a1.66,1.66,0,1,1-1.66,1.66A1.65,1.65,0,0,1,140,59.6m0-.92a2.58,2.58,0,1,0,2.58,2.58A2.58,2.58,0,0,0,140,58.68Z"/><path class="cls-5" d="M133.41,74.28a1.66,1.66,0,1,1-1.66,1.66,1.65,1.65,0,0,1,1.66-1.66m0-.92A2.58,2.58,0,1,0,136,75.94a2.58,2.58,0,0,0-2.58-2.58Z"/><path class="cls-5" d="M115.6,50.59l-3.86-2.5H98.68v-.92h13.17a.53.53,0,0,1,.26.07l3.86,2.5h3.79v.92h-3.94A.39.39,0,0,1,115.6,50.59Z"/><path class="cls-5" d="M130.32,61.59l-3.94-3.2H98.64v-.92h27.89a.42.42,0,0,1,.29.11l3.94,3.2h7.69v.92h-7.84A.42.42,0,0,1,130.32,61.59Z"/><path class="cls-5" d="M98.64,78.07H119l4.56-2.54a.52.52,0,0,1,.22-.07h8v.92h-7.87l-4.56,2.54a.52.52,0,0,1-.22.07H98.64Z"/><rect class="cls-5" x="98.57" y="67.77" width="20.53" height="0.92"/><path class="cls-5" d="M95.5,170A77.5,77.5,0,1,1,173,92.5,77.59,77.59,0,0,1,95.5,170Zm0-153A75.5,75.5,0,1,0,171,92.5,75.59,75.59,0,0,0,95.5,17Z"/><circle class="cls-6" cx="21.87" cy="126.82" r="1.42" transform="translate(-1.21 0.22) rotate(-0.55)"/><circle class="cls-6" cx="21.91" cy="131.09" r="1.42" transform="translate(-1.25 0.22) rotate(-0.55)"/><circle class="cls-6" cx="21.95" cy="135.36" r="1.42" transform="translate(-1.29 0.22) rotate(-0.55)"/><circle class="cls-6" cx="17.87" cy="121.82" r="1.42" transform="translate(-1.17 0.18) rotate(-0.55)"/><circle class="cls-6" cx="17.91" cy="126.09" r="1.42" transform="translate(-1.21 0.18) rotate(-0.55)"/><circle class="cls-6" cx="17.95" cy="130.36" r="1.42" transform="translate(-1.25 0.18) rotate(-0.55)"/><circle class="cls-6" cx="36.87" cy="122.82" r="1.42" transform="translate(-1.17 0.36) rotate(-0.55)"/><circle class="cls-6" cx="36.91" cy="127.09" r="1.42" transform="translate(-1.21 0.36) rotate(-0.55)"/><circle class="cls-6" cx="36.95" cy="131.36" r="1.42" transform="translate(-1.26 0.36) rotate(-0.55)"/><circle class="cls-6" cx="32.87" cy="117.82" r="1.42" transform="translate(-1.13 0.32) rotate(-0.55)"/><circle class="cls-6" cx="32.91" cy="122.09" r="1.42" transform="translate(-1.17 0.32) rotate(-0.55)"/><circle class="cls-6" cx="32.95" cy="126.36" r="1.42" transform="translate(-1.21 0.32) rotate(-0.55)"/><circle class="cls-5" cx="167.87" cy="88.82" r="1.42" transform="translate(-0.84 1.61) rotate(-0.55)"/><circle class="cls-5" cx="167.91" cy="93.09" r="1.42" transform="translate(-0.88 1.61) rotate(-0.55)"/><circle class="cls-5" cx="167.95" cy="97.36" r="1.42" transform="translate(-0.92 1.61) rotate(-0.55)"/><circle class="cls-5" cx="163.87" cy="83.82" r="1.42" transform="translate(-0.79 1.57) rotate(-0.55)"/><circle class="cls-5" cx="163.91" cy="88.09" r="1.42" transform="translate(-0.84 1.57) rotate(-0.55)"/><circle class="cls-5" cx="163.95" cy="92.36" r="1.42" transform="translate(-0.88 1.57) rotate(-0.55)"/><circle class="cls-5" cx="161.87" cy="98.82" r="1.42" transform="translate(-0.94 1.55) rotate(-0.55)"/><circle class="cls-5" cx="161.91" cy="103.09" r="1.42" transform="translate(-0.98 1.55) rotate(-0.55)"/><circle class="cls-5" cx="161.95" cy="107.36" r="1.42" transform="translate(-1.02 1.56) rotate(-0.55)"/><circle class="cls-5" cx="157.87" cy="93.82" r="1.42" transform="translate(-0.89 1.52) rotate(-0.55)"/><circle class="cls-5" cx="157.91" cy="98.09" r="1.42" transform="translate(-0.93 1.52) rotate(-0.55)"/><circle class="cls-5" cx="157.95" cy="102.36" r="1.42" transform="translate(-0.97 1.52) rotate(-0.55)"/><circle class="cls-6" cx="36.55" cy="37.43" r="1.42" transform="translate(-15.46 43.1) rotate(-51.9)"/><circle class="cls-6" cx="33.91" cy="40.79" r="1.42" transform="translate(-19.11 42.31) rotate(-51.9)"/><circle class="cls-6" cx="31.28" cy="44.15" r="1.42" transform="translate(-22.77 41.52) rotate(-51.9)"/><circle class="cls-6" cx="36.55" cy="31.03" r="1.42" transform="translate(-10.42 40.64) rotate(-51.9)"/><circle class="cls-6" cx="33.91" cy="34.39" r="1.42" transform="translate(-14.08 39.86) rotate(-51.9)"/><circle class="cls-6" cx="31.28" cy="37.75" r="1.42" transform="translate(-17.73 39.07) rotate(-51.9)"/><circle class="cls-5" cx="120.19" cy="172.93" r="1.42" transform="translate(-47.25 45.2) rotate(-17.86)"/><circle class="cls-5" cx="116.12" cy="174.24" r="1.42" transform="translate(-47.85 44.02) rotate(-17.86)"/><circle class="cls-5" cx="112.05" cy="175.55" r="1.42" transform="translate(-48.45 42.83) rotate(-17.86)"/><circle class="cls-5" cx="123.77" cy="167.63" r="1.42" transform="translate(-45.45 46.05) rotate(-17.86)"/><circle class="cls-5" cx="119.7" cy="168.94" r="1.42" transform="translate(-46.05 44.86) rotate(-17.86)"/><circle class="cls-5" cx="115.64" cy="170.25" r="1.42" transform="translate(-46.65 43.68) rotate(-17.86)"/><g class="cls-7"><circle class="cls-8" cx="174.05" cy="118.72" r="1.42" transform="translate(-0.48 236.73) rotate(-68.36)"/><circle class="cls-8" cx="172.48" cy="122.69" r="1.42" transform="translate(-5.17 237.77) rotate(-68.36)"/><circle class="cls-8" cx="170.9" cy="126.66" r="1.42" transform="translate(-9.85 238.81) rotate(-68.36)"/></g></g></g></svg>